<svg width="24" height="25" viewBox="0 0 24 25" fill="none" xmlns="http://www.w3.org/2000/svg">
<path d="M12 20.375H5.2C4.07989 20.375 3.51984 20.375 3.09202 20.157C2.71569 19.9653 2.40973 19.6593 2.21799 19.283C2 18.8552 2 18.2951 2 17.175V7.575C2 6.45489 2 5.89484 2.21799 5.46702C2.40973 5.09069 2.71569 4.78473 3.09202 4.59299C3.51984 4.375 4.07989 4.375 5.2 4.375H5.6C7.84021 4.375 8.96031 4.375 9.81596 4.81097C10.5686 5.19447 11.1805 5.80639 11.564 6.55904C12 7.41468 12 8.53479 12 10.775M12 20.375V10.775M12 20.375H18.8C19.9201 20.375 20.4802 20.375 20.908 20.157C21.2843 19.9653 21.5903 19.6593 21.782 19.283C22 18.8552 22 18.2951 22 17.175V7.575C22 6.45489 22 5.89484 21.782 5.46702C21.5903 5.09069 21.2843 4.78473 20.908 4.59299C20.4802 4.375 19.9201 4.375 18.8 4.375H18.4C16.1598 4.375 15.0397 4.375 14.184 4.81097C13.4314 5.19447 12.8195 5.80639 12.436 6.55904C12 7.41468 12 8.53479 12 10.775" stroke="#FBBD22" stroke-width="2" stroke-linecap="round" stroke-linejoin="round"/>
</svg>
