<svg width="23" height="19" viewBox="0 0 23 19" fill="none" xmlns="http://www.w3.org/2000/svg">
<path d="M11.0625 17.4092H4.2625C3.14239 17.4092 2.58234 17.4092 2.15452 17.1912C1.77819 16.9994 1.47223 16.6935 1.28049 16.3172C1.0625 15.8893 1.0625 15.3293 1.0625 14.2092V4.60918C1.0625 3.48907 1.0625 2.92902 1.28049 2.5012C1.47223 2.12487 1.77819 1.81891 2.15452 1.62717C2.58234 1.40918 3.14239 1.40918 4.2625 1.40918H4.6625C6.90271 1.40918 8.02281 1.40918 8.87846 1.84515C9.63111 2.22865 10.243 2.84057 10.6265 3.59322C11.0625 4.44886 11.0625 5.56897 11.0625 7.80918M11.0625 17.4092V7.80918M11.0625 17.4092H17.8625C18.9826 17.4092 19.5427 17.4092 19.9705 17.1912C20.3468 16.9994 20.6528 16.6935 20.8445 16.3172C21.0625 15.8893 21.0625 15.3293 21.0625 14.2092V4.60918C21.0625 3.48907 21.0625 2.92902 20.8445 2.5012C20.6528 2.12487 20.3468 1.81891 19.9705 1.62717C19.5427 1.40918 18.9826 1.40918 17.8625 1.40918H17.4625C15.2223 1.40918 14.1022 1.40918 13.2465 1.84515C12.4939 2.22865 11.882 2.84057 11.4985 3.59322C11.0625 4.44886 11.0625 5.56897 11.0625 7.80918" stroke="#3C9BD6" stroke-width="2" stroke-linecap="round" stroke-linejoin="round"/>
</svg>
