<svg width="25" height="25" viewBox="0 0 25 25" fill="none" xmlns="http://www.w3.org/2000/svg">
<g id="Icons / Setting menu / Domande frequenti">
<path id="Icon" d="M10.9469 9.52763C11.1231 9.02675 11.4709 8.6044 11.9286 8.33537C12.3864 8.06634 12.9246 7.96799 13.4479 8.05776C13.9712 8.14752 14.4459 8.4196 14.7878 8.8258C15.1298 9.232 15.3169 9.74611 15.3161 10.2771C15.3161 11.776 13.0678 12.5254 13.0678 12.5254M13.0968 15.5254H13.1068M12.9469 20.5254C17.6413 20.5254 21.4469 16.7198 21.4469 12.0254C21.4469 7.33097 17.6413 3.52539 12.9469 3.52539C8.25247 3.52539 4.44689 7.33097 4.44689 12.0254C4.44689 12.9754 4.60274 13.889 4.89026 14.742C4.99846 15.063 5.05256 15.2235 5.06232 15.3468C5.07195 15.4686 5.06467 15.554 5.03454 15.6723C5.00404 15.7922 4.93669 15.9169 4.80198 16.1662L3.16633 19.1937C2.93302 19.6256 2.81636 19.8415 2.84247 20.0082C2.86521 20.1533 2.95064 20.2811 3.07606 20.3576C3.22007 20.4455 3.46419 20.4202 3.95243 20.3698L9.07345 19.8404C9.22853 19.8244 9.30607 19.8164 9.37675 19.8191C9.44626 19.8217 9.49534 19.8283 9.56312 19.8439C9.63204 19.8598 9.71871 19.8931 9.89205 19.9599C10.8401 20.3252 11.8701 20.5254 12.9469 20.5254Z" stroke="#9AD4F9" stroke-width="2" stroke-linecap="round" stroke-linejoin="round"/>
</g>
</svg>
