<svg width="23" height="19" viewBox="0 0 23 19" fill="none" xmlns="http://www.w3.org/2000/svg">
<path d="M11.0625 17.8281H4.2625C3.14239 17.8281 2.58234 17.8281 2.15452 17.6101C1.77819 17.4184 1.47223 17.1124 1.28049 16.7361C1.0625 16.3083 1.0625 15.7482 1.0625 14.6281V5.02812C1.0625 3.90802 1.0625 3.34797 1.28049 2.92014C1.47223 2.54382 1.77819 2.23786 2.15452 2.04611C2.58234 1.82812 3.14239 1.82812 4.2625 1.82812H4.6625C6.90271 1.82812 8.02281 1.82812 8.87846 2.2641C9.63111 2.64759 10.243 3.25951 10.6265 4.01216C11.0625 4.86781 11.0625 5.98792 11.0625 8.22813M11.0625 17.8281V8.22813M11.0625 17.8281H17.8625C18.9826 17.8281 19.5427 17.8281 19.9705 17.6101C20.3468 17.4184 20.6528 17.1124 20.8445 16.7361C21.0625 16.3083 21.0625 15.7482 21.0625 14.6281V5.02812C21.0625 3.90802 21.0625 3.34797 20.8445 2.92014C20.6528 2.54382 20.3468 2.23786 19.9705 2.04611C19.5427 1.82812 18.9826 1.82812 17.8625 1.82812H17.4625C15.2223 1.82812 14.1022 1.82812 13.2465 2.2641C12.4939 2.64759 11.882 3.25951 11.4985 4.01216C11.0625 4.86781 11.0625 5.98792 11.0625 8.22813" stroke="#9AD4F9" stroke-width="2" stroke-linecap="round" stroke-linejoin="round"/>
</svg>
