<svg width="81" height="99" viewBox="0 0 81 99" fill="none" xmlns="http://www.w3.org/2000/svg">
<g clip-path="url(#clip0_21_6289)">
<path d="M75.6528 98.1005H4.47638C2.7155 98.1005 1.2767 96.582 1.23422 94.6805L0.0639477 41.6117C0.0200971 39.6431 1.48494 38.0234 3.30611 38.0234H76.8189C78.6415 38.0234 80.1078 39.6431 80.0612 41.6117L78.8909 94.6805C78.8498 96.5847 77.4096 98.1005 75.6528 98.1005Z" fill="#3C9BD6"/>
<path d="M65.9041 38.0219H57.8191V26.5731C57.8191 21.8717 55.9483 17.3629 52.6183 14.0386C49.2883 10.7142 44.7718 8.84658 40.0624 8.84658C35.353 8.84658 30.8365 10.7142 27.5065 14.0386C24.1765 17.3629 22.3057 21.8717 22.3057 26.5731V38.0219H14.2207V26.5731C14.2207 12.3459 25.8137 0.775391 40.0624 0.775391C54.3111 0.775391 65.9041 12.3487 65.9041 26.5731V38.0219Z" fill="#F6FCFF"/>
<path d="M44.0831 67.05L45.7891 84.191C45.801 84.3088 45.7881 84.4277 45.7511 84.5402C45.714 84.6526 45.6538 84.7561 45.5743 84.8439C45.4947 84.9317 45.3976 85.0018 45.2892 85.0498C45.1809 85.0979 45.0636 85.1226 44.945 85.1226H35.18C35.0615 85.1226 34.9442 85.0979 34.8358 85.0498C34.7275 85.0018 34.6303 84.9317 34.5508 84.8439C34.4713 84.7561 34.411 84.6526 34.374 84.5402C34.337 84.4277 34.3241 84.3088 34.3359 84.191L36.042 67.0486C36.0728 66.7383 36.0221 66.4252 35.895 66.1402C35.7679 65.8553 35.5687 65.6083 35.3171 65.4234C33.9598 64.426 32.9526 63.0264 32.439 61.424C31.9253 59.8215 31.9314 58.0981 32.4564 56.4994C32.9814 54.9007 33.9985 53.5081 35.3628 52.5203C36.727 51.5325 38.3688 50.9997 40.0541 50.9981C41.7395 50.9964 43.3823 51.5258 44.7486 52.5109C46.1149 53.4959 47.1347 54.8864 47.663 56.4841C48.1912 58.0818 48.2008 59.8052 47.6904 61.4086C47.18 63.012 46.1755 64.4137 44.8203 65.4139C44.5662 65.5996 44.3647 65.8481 44.2355 66.1348C44.1062 66.4216 44.0538 66.7369 44.0831 67.05Z" fill="#1B385A"/>
</g>
<defs>
<clipPath id="clip0_21_6289">
<rect width="80" height="97.3248" fill="white" transform="translate(0.0625 0.775391)"/>
</clipPath>
</defs>
</svg>
