<svg width="23" height="22" viewBox="0 0 23 22" fill="none" xmlns="http://www.w3.org/2000/svg">
<path d="M11.0625 14.1399L8.0625 11.1399M11.0625 14.1399C12.4593 13.6086 13.7994 12.9386 15.0625 12.1399M11.0625 14.1399V19.1399C11.0625 19.1399 14.0925 18.5899 15.0625 17.1399C16.1425 15.5199 15.0625 12.1399 15.0625 12.1399M8.0625 11.1399C8.59464 9.75933 9.2647 8.43596 10.0625 7.1899C11.2277 5.32688 12.8501 3.79295 14.7755 2.73399C16.7009 1.67503 18.8652 1.12627 21.0625 1.1399C21.0625 3.8599 20.2825 8.6399 15.0625 12.1399M8.0625 11.1399H3.0625C3.0625 11.1399 3.6125 8.1099 5.0625 7.1399C6.6825 6.0599 10.0625 7.1399 10.0625 7.1399M3.5625 15.6399C2.0625 16.8999 1.5625 20.6399 1.5625 20.6399C1.5625 20.6399 5.3025 20.1399 6.5625 18.6399C7.2725 17.7999 7.2625 16.5099 6.4725 15.7299C6.08381 15.3589 5.57179 15.1445 5.03473 15.1279C4.49766 15.1113 3.97338 15.2936 3.5625 15.6399Z" stroke="#3C9BD6" stroke-width="2" stroke-linecap="round" stroke-linejoin="round"/>
</svg>
