<svg width="25" height="25" viewBox="0 0 25 25" fill="none" xmlns="http://www.w3.org/2000/svg">
<g id="Icons / Setting menu / Premium">
<path id="Icon" d="M11.7299 3.97895C11.9604 3.51201 12.0756 3.27854 12.2321 3.20395C12.3682 3.13905 12.5264 3.13905 12.6625 3.20395C12.8189 3.27854 12.9342 3.51201 13.1646 3.97895L15.3513 8.40892C15.4194 8.54677 15.4534 8.61569 15.5031 8.66921C15.5471 8.71659 15.5999 8.75498 15.6586 8.78226C15.7248 8.81306 15.8009 8.82417 15.953 8.84641L20.8443 9.56134C21.3593 9.63663 21.6169 9.67427 21.736 9.80007C21.8397 9.90953 21.8885 10.0599 21.8688 10.2094C21.8461 10.3812 21.6596 10.5628 21.2867 10.926L17.7487 14.3721C17.6384 14.4795 17.5833 14.5332 17.5477 14.5971C17.5162 14.6537 17.496 14.7158 17.4882 14.7801C17.4794 14.8528 17.4924 14.9286 17.5184 15.0804L18.3532 19.9478C18.4413 20.4611 18.4853 20.7178 18.4026 20.8701C18.3306 21.0027 18.2026 21.0956 18.0543 21.1231C17.8839 21.1547 17.6534 21.0335 17.1924 20.791L12.8196 18.4915C12.6834 18.4198 12.6153 18.384 12.5435 18.3699C12.48 18.3575 12.4146 18.3575 12.3511 18.3699C12.2793 18.384 12.2112 18.4198 12.0749 18.4915L7.70219 20.791C7.24118 21.0335 7.01068 21.1547 6.84024 21.1231C6.69195 21.0956 6.56399 21.0027 6.492 20.8701C6.40927 20.7178 6.45329 20.4611 6.54134 19.9478L7.37615 15.0804C7.40218 14.9286 7.41519 14.8528 7.40639 14.7801C7.39859 14.7158 7.37838 14.6537 7.34687 14.5971C7.31129 14.5332 7.25614 14.4795 7.14585 14.3721L3.60782 10.926C3.23493 10.5628 3.04848 10.3812 3.02579 10.2094C3.00605 10.0599 3.05482 9.90953 3.15852 9.80007C3.2777 9.67427 3.53524 9.63663 4.05031 9.56134L8.94158 8.84641C9.09369 8.82417 9.16975 8.81306 9.23598 8.78226C9.29463 8.75498 9.34743 8.71659 9.39145 8.66921C9.44117 8.61569 9.47519 8.54677 9.54324 8.40892L11.7299 3.97895Z" fill="#F5BA25" stroke="#F5BA25" stroke-width="2" stroke-linecap="round" stroke-linejoin="round"/>
</g>
</svg>
