<svg width="28" height="28" viewBox="0 0 28 28" fill="none" xmlns="http://www.w3.org/2000/svg">
<g id="Icons / Header / Promemoria">
<path id="Icon" d="M16.7897 21.0209C17.29 22.888 16.1819 24.8072 14.3148 25.3075C12.4477 25.8078 10.5285 24.6998 10.0282 22.8326M12.707 6.70132C13.0619 6.0628 13.1788 5.29105 12.9748 4.52969C12.5579 2.97375 10.9585 2.05038 9.4026 2.46729C7.84665 2.88421 6.92329 4.48352 7.3402 6.03947C7.54421 6.80083 8.03133 7.41073 8.65795 7.78625M18.9421 11.0232C18.5256 9.46901 17.4139 8.16939 15.8514 7.4102C14.2889 6.65101 12.4037 6.49445 10.6104 6.97495C8.81716 7.45545 7.26278 8.53366 6.28922 9.97238C5.31566 11.4111 5.00267 13.0925 5.41911 14.6466C6.10811 17.218 5.97432 19.2695 5.53921 20.8283C5.0433 22.605 4.79534 23.4933 4.86233 23.6717C4.93897 23.8758 4.99441 23.9318 5.19768 24.0105C5.37535 24.0794 6.12175 23.8794 7.61455 23.4794L21.4571 19.7703C22.9499 19.3703 23.6963 19.1703 23.8158 19.0218C23.9524 18.852 23.9724 18.7758 23.9368 18.5607C23.9056 18.3727 23.2467 17.7274 21.9289 16.4367C20.7727 15.3043 19.6311 13.5946 18.9421 11.0232Z" stroke="#65B7EA" stroke-width="2" stroke-linecap="round" stroke-linejoin="round"/>
</g>
</svg>
