<svg width="25" height="25" viewBox="0 0 25 25" fill="none" xmlns="http://www.w3.org/2000/svg">
<g clip-path="url(#clip0_6_5943)">
<path d="M12.0625 15.1399L9.0625 12.1399M12.0625 15.1399C13.4593 14.6086 14.7994 13.9386 16.0625 13.1399M12.0625 15.1399V20.1399C12.0625 20.1399 15.0925 19.5899 16.0625 18.1399C17.1425 16.5199 16.0625 13.1399 16.0625 13.1399M9.0625 12.1399C9.59464 10.7593 10.2647 9.43596 11.0625 8.1899C12.2277 6.32688 13.8501 4.79295 15.7755 3.73399C17.7009 2.67503 19.8652 2.12627 22.0625 2.1399C22.0625 4.8599 21.2825 9.6399 16.0625 13.1399M9.0625 12.1399H4.0625C4.0625 12.1399 4.6125 9.1099 6.0625 8.1399C7.6825 7.0599 11.0625 8.1399 11.0625 8.1399M4.5625 16.6399C3.0625 17.8999 2.5625 21.6399 2.5625 21.6399C2.5625 21.6399 6.3025 21.1399 7.5625 19.6399C8.2725 18.7999 8.2625 17.5099 7.4725 16.7299C7.08381 16.3589 6.57179 16.1445 6.03473 16.1279C5.49766 16.1113 4.97338 16.2936 4.5625 16.6399Z" stroke="#F5BA25" stroke-width="2" stroke-linecap="round" stroke-linejoin="round"/>
</g>
<defs>
<clipPath id="clip0_6_5943">
<rect width="24" height="24" fill="white" transform="translate(0.0625 0.40918)"/>
</clipPath>
</defs>
</svg>
