<svg width="25" height="25" viewBox="0 0 25 25" fill="none" xmlns="http://www.w3.org/2000/svg">
<path d="M12.0625 15.5588L9.0625 12.5588M12.0625 15.5588C13.4593 15.0276 14.7994 14.3576 16.0625 13.5588M12.0625 15.5588V20.5588C12.0625 20.5588 15.0925 20.0088 16.0625 18.5588C17.1425 16.9388 16.0625 13.5588 16.0625 13.5588M9.0625 12.5588C9.59464 11.1783 10.2647 9.85491 11.0625 8.60884C12.2277 6.74583 13.8501 5.21189 15.7755 4.15293C17.7009 3.09398 19.8652 2.54521 22.0625 2.55884C22.0625 5.27884 21.2825 10.0588 16.0625 13.5588M9.0625 12.5588H4.0625C4.0625 12.5588 4.6125 9.52884 6.0625 8.55884C7.6825 7.47884 11.0625 8.55884 11.0625 8.55884M4.5625 17.0588C3.0625 18.3188 2.5625 22.0588 2.5625 22.0588C2.5625 22.0588 6.3025 21.5588 7.5625 20.0588C8.2725 19.2188 8.2625 17.9288 7.4725 17.1488C7.08381 16.7779 6.57179 16.5635 6.03473 16.5469C5.49766 16.5303 4.97338 16.7126 4.5625 17.0588Z" stroke="#9AD4F9" stroke-width="2" stroke-linecap="round" stroke-linejoin="round"/>
</svg>
