<svg width="25" height="25" viewBox="0 0 25 25" fill="none" xmlns="http://www.w3.org/2000/svg">
<g id="settings-02">
<g id="Icon">
<path d="M9.84231 19.8965L10.4268 21.2109C10.6005 21.6022 10.884 21.9347 11.243 22.168C11.6019 22.4013 12.0209 22.5255 12.449 22.5254C12.8771 22.5255 13.296 22.4013 13.655 22.168C14.0139 21.9347 14.2975 21.6022 14.4712 21.2109L15.0556 19.8965C15.2637 19.4301 15.6136 19.0413 16.0556 18.7854C16.5004 18.5288 17.015 18.4195 17.5256 18.4732L18.9556 18.6254C19.3813 18.6704 19.8109 18.591 20.1923 18.3967C20.5738 18.2025 20.8906 17.9017 21.1045 17.5309C21.3187 17.1604 21.4207 16.7357 21.3983 16.3083C21.3758 15.8809 21.2297 15.4692 20.9779 15.1232L20.1312 13.9598C19.8297 13.5425 19.6686 13.0402 19.6712 12.5254C19.6711 12.012 19.8337 11.5117 20.1356 11.0965L20.9823 9.93317C21.2342 9.58715 21.3802 9.17546 21.4027 8.74806C21.4252 8.32067 21.3232 7.89593 21.109 7.52539C20.8951 7.15463 20.5782 6.85388 20.1968 6.65962C19.8153 6.46536 19.3858 6.38592 18.9601 6.43095L17.5301 6.58317C17.0194 6.6368 16.5049 6.52751 16.0601 6.27095C15.6172 6.01364 15.2672 5.62275 15.0601 5.15428L14.4712 3.83984C14.2975 3.44856 14.0139 3.11611 13.655 2.88279C13.296 2.64947 12.8771 2.52532 12.449 2.52539C12.0209 2.52532 11.6019 2.64947 11.243 2.88279C10.884 3.11611 10.6005 3.44856 10.4268 3.83984L9.84231 5.15428C9.63524 5.62275 9.28518 6.01364 8.84231 6.27095C8.39752 6.52751 7.88298 6.6368 7.37231 6.58317L5.93786 6.43095C5.51219 6.38592 5.0826 6.46536 4.70118 6.65962C4.31975 6.85388 4.00288 7.15463 3.78897 7.52539C3.5748 7.89593 3.47276 8.32067 3.49524 8.74806C3.51773 9.17546 3.66377 9.58715 3.91564 9.93317L4.76231 11.0965C5.06425 11.5117 5.22685 12.012 5.22675 12.5254C5.22685 13.0388 5.06425 13.539 4.76231 13.9543L3.91564 15.1176C3.66377 15.4636 3.51773 15.8753 3.49524 16.3027C3.47276 16.7301 3.5748 17.1549 3.78897 17.5254C4.00309 17.896 4.32 18.1965 4.70137 18.3908C5.08274 18.585 5.51223 18.6646 5.93786 18.6198L7.36786 18.4676C7.87853 18.414 8.39308 18.5233 8.83786 18.7798C9.28239 19.0364 9.63407 19.4274 9.84231 19.8965Z" stroke="#9AD4F9" stroke-width="2" stroke-linecap="round" stroke-linejoin="round"/>
<path d="M12.4472 15.5254C14.104 15.5254 15.4472 14.1822 15.4472 12.5254C15.4472 10.8685 14.104 9.52539 12.4472 9.52539C10.7903 9.52539 9.44719 10.8685 9.44719 12.5254C9.44719 14.1822 10.7903 15.5254 12.4472 15.5254Z" stroke="#9AD4F9" stroke-width="2" stroke-linecap="round" stroke-linejoin="round"/>
</g>
</g>
</svg>
